<?xml version="1.0" encoding="UTF-8"?>
<svg xmlns="http://www.w3.org/2000/svg" width="113" height="48" viewBox="0 0 113 48" fill="none">
  <g clip-path="url(#clip0_607_3027)">
    <path d="M41.0115 5.9231V6.092C41.0291 7.33557 41.3366 8.55772 41.9092 9.66057C42.4819 10.7634 43.3038 11.7163 44.3092 12.443C45.8673 13.6094 46.9608 15.2947 47.3939 17.1969C47.8269 19.0991 47.5712 21.0939 46.6725 22.824C45.7738 24.5541 44.2908 25.9065 42.4893 26.6389C40.6878 27.3713 38.6854 27.4358 36.8408 26.8209C34.9962 26.2059 33.4299 24.9518 32.4226 23.2831C31.4153 21.6143 31.0327 19.6401 31.3433 17.7139C31.654 15.7878 32.6376 14.0356 34.118 12.7713C35.5984 11.5069 37.4789 10.8131 39.4225 10.8139C39.4228 10.1299 39.2503 9.45692 38.9209 8.85808C38.5916 8.25924 38.1162 7.75408 37.5394 7.38992C36.9626 7.02575 36.3032 6.81449 35.6229 6.77589C34.9426 6.7373 34.2637 6.87265 33.6497 7.16926C30.809 8.5641 28.5638 10.9394 27.325 13.8603C26.0862 16.7811 25.9368 20.0522 26.904 23.0747C27.8712 26.0972 29.8904 28.6688 32.5919 30.3189C35.2934 31.969 38.4965 32.587 41.6149 32.06C44.7332 31.5329 47.5582 29.896 49.5726 27.4489C51.587 25.0017 52.6561 21.9081 52.5842 18.7343C52.5123 15.5605 51.3042 12.5189 49.1811 10.1662C47.0579 7.81356 44.1617 6.30727 41.0228 5.9231" fill="#F08322"></path>
    <path d="M19.8501 9.06479C18.2769 7.88005 16.4458 7.08764 14.5077 6.75286C12.5695 6.41809 10.5799 6.55054 8.70281 7.13931C6.8257 7.72808 5.11485 8.75629 3.71129 10.1392C2.30774 11.5221 1.25168 13.2201 0.63016 15.0932C0.00864211 16.9663 -0.160531 18.9609 0.136585 20.9125C0.433702 22.8642 1.1886 24.717 2.33905 26.3182C3.4895 27.9194 5.00256 29.2232 6.75349 30.1221C8.50443 31.021 10.4431 31.4893 12.4097 31.4883H16.8963V30.7789C16.8954 30.2153 16.7837 29.6575 16.5678 29.1373C16.3518 28.6172 16.0358 28.1448 15.6378 27.7474C15.2398 27.35 14.7677 27.0352 14.2484 26.8211C13.7292 26.6071 13.1729 26.4979 12.6116 26.4999C8.67456 26.4999 5.26471 23.4971 4.98803 19.5671C4.91251 18.4987 5.06653 17.4265 5.43967 16.423C5.8128 15.4195 6.39634 14.5083 7.15077 13.7509C7.90521 12.9935 8.81293 12.4076 9.81248 12.0331C10.812 11.6585 11.8801 11.5038 12.9444 11.5796C16.8739 11.8574 19.8501 15.2806 19.8501 19.2331V31.4245H24.819V1.1261C24.1652 1.1261 23.5179 1.25562 22.914 1.50725C22.3102 1.75888 21.7617 2.12767 21.3001 2.59248C20.8385 3.05729 20.4728 3.60898 20.224 4.21594C19.9752 4.8229 19.8481 5.47319 19.8501 6.12954V9.06479Z" fill="#F08322"></path>
    <path d="M73.8764 9.06479C72.3033 7.88005 70.4722 7.08764 68.534 6.75286C66.5959 6.41809 64.6063 6.55054 62.7292 7.13931C60.8521 7.72808 59.1412 8.75629 57.7377 10.1392C56.3341 11.5221 55.278 13.2201 54.6565 15.0932C54.035 16.9663 53.8658 18.9609 54.163 20.9125C54.4601 22.8642 55.215 24.717 56.3654 26.3182C57.5159 27.9194 59.0289 29.2232 60.7799 30.1221C62.5308 31.021 64.4695 31.4893 66.4361 31.4883H70.9227V30.7789C70.9217 30.2153 70.8101 29.6575 70.5941 29.1373C70.3782 28.6172 70.0622 28.1448 69.6642 27.7474C69.2662 27.35 68.7941 27.0352 68.2748 26.8211C67.7555 26.6071 67.1993 26.4979 66.638 26.4999C62.7009 26.4999 59.2911 23.4971 59.0144 19.5671C58.9389 18.4987 59.0929 17.4265 59.466 16.423C59.8392 15.4195 60.4227 14.5083 61.1771 13.7509C61.9316 12.9935 62.8393 12.4076 63.8388 12.0331C64.8384 11.6585 65.9065 11.5038 66.9707 11.5796C70.9003 11.8574 73.8764 15.2806 73.8764 19.2331V31.4245H78.8454V1.1261C77.5275 1.1261 76.2637 1.65166 75.3318 2.58717C74.3999 3.52269 73.8764 4.79151 73.8764 6.11453V9.06479Z" fill="#F08322"></path>
    <path d="M93.2031 6.57245C91.5326 6.54138 89.873 6.8488 88.3235 7.47632C86.774 8.10384 85.3665 9.03858 84.185 10.2247C83.0036 11.4107 82.0725 12.8238 81.4474 14.3794C80.8223 15.9349 80.5161 17.601 80.5471 19.2781C80.6779 26.0007 86.5293 31.4883 93.2405 31.4883H97.4281V26.4999H93.1545C89.2175 26.4999 85.8114 23.4971 85.5347 19.5671C85.4592 18.4987 85.6132 17.4265 85.9864 16.423C86.3595 15.4195 86.943 14.5082 87.6975 13.7509C88.4519 12.9935 89.3596 12.4076 90.3592 12.0331C91.3587 11.6585 92.4268 11.5038 93.491 11.5796C97.4169 11.8574 100.393 15.2806 100.393 19.2331V26.4361C100.393 27.7591 100.917 29.0279 101.848 29.9634C102.78 30.8989 104.044 31.4245 105.362 31.4245V19.3157C105.362 12.5969 99.8957 6.70758 93.2031 6.57245Z" fill="#F08322"></path>
    <path d="M107.426 31.4245H112.395V9.97314C111.742 9.97314 111.095 10.1023 110.492 10.3532C109.889 10.6042 109.341 10.9719 108.88 11.4355C108.418 11.8992 108.052 12.4495 107.803 13.0552C107.553 13.6608 107.425 14.3099 107.426 14.9653V31.4245Z" fill="#F08322"></path>
    <path d="M109.923 6.20082C110.534 6.20082 111.131 6.01898 111.639 5.6783C112.147 5.33763 112.543 4.85341 112.777 4.28688C113.01 3.72036 113.071 3.09697 112.952 2.49555C112.833 1.89413 112.539 1.34169 112.107 0.90809C111.675 0.47449 111.125 0.179205 110.526 0.0595748C109.927 -0.060055 109.306 0.00134337 108.741 0.236006C108.177 0.470668 107.695 0.868055 107.355 1.37791C107.016 1.88777 106.835 2.48721 106.835 3.10041C106.835 3.92269 107.16 4.71129 107.74 5.29273C108.319 5.87417 109.104 6.20082 109.923 6.20082Z" fill="#F08322"></path>
    <path d="M19.0088 46.2659V39.8024H23.2487V40.9284H20.2651V42.4448H22.8075V43.5709H20.2651V45.1399H23.2487V46.2659H19.0088Z" fill="#1C274C" fill-opacity="0.81"></path>
    <path d="M26.6878 43.1279H23.9023V44.2277H26.6878V43.1279Z" fill="#1C274C" fill-opacity="0.81"></path>
    <path d="M32.9989 46.2658V43.4056C33.0113 43.2965 33.0007 43.1859 32.968 43.081C32.9352 42.9761 32.881 42.8793 32.8088 42.7967C32.7365 42.7142 32.6479 42.6477 32.5486 42.6015C32.4492 42.5553 32.3414 42.5305 32.2319 42.5287C32.1225 42.5269 32.0138 42.548 31.913 42.5908C31.8122 42.6336 31.7214 42.6971 31.6464 42.7772C31.5715 42.8573 31.5141 42.9523 31.4779 43.056C31.4416 43.1597 31.4274 43.2698 31.4361 43.3794V46.2658H30.2621V43.4056C30.2695 43.2978 30.2548 43.1896 30.2188 43.0877C30.1828 42.9859 30.1263 42.8925 30.0528 42.8135C29.9793 42.7345 29.8905 42.6714 29.7917 42.6284C29.693 42.5853 29.5865 42.563 29.4788 42.563C29.3711 42.563 29.2646 42.5853 29.1658 42.6284C29.0671 42.6714 28.9782 42.7345 28.9048 42.8135C28.8313 42.8925 28.7748 42.9859 28.7388 43.0877C28.7028 43.1896 28.6881 43.2978 28.6955 43.4056V46.2658H27.5215V41.5364H28.6693V41.9718C28.8233 41.8167 29.0062 41.6938 29.2077 41.61C29.4092 41.5263 29.6252 41.4834 29.8433 41.4838C30.0845 41.4714 30.3249 41.5195 30.5429 41.6237C30.7609 41.7279 30.9497 41.8849 31.0921 42.0807C31.2687 41.8831 31.4867 41.7271 31.7304 41.6239C31.974 41.5208 32.2374 41.4729 32.5017 41.4838C32.9272 41.4669 33.3426 41.6162 33.6607 41.9005C33.8345 42.0765 33.9701 42.2868 34.0589 42.5181C34.1477 42.7494 34.1878 42.9966 34.1767 43.2442V46.2658H32.9989Z" fill="#1C274C" fill-opacity="0.81"></path>
    <path d="M37.4264 42.7526C37.3534 42.6828 37.2671 42.6285 37.1726 42.593C37.0781 42.5575 36.9775 42.5416 36.8768 42.5461C36.7767 42.5421 36.6767 42.5583 36.583 42.5937C36.4892 42.6292 36.4035 42.6832 36.3309 42.7526C36.0879 43.0003 36.0617 43.4057 36.0617 43.8786C36.0617 44.3516 36.0879 44.787 36.3309 45.031C36.4032 45.101 36.4887 45.1557 36.5825 45.1919C36.6763 45.228 36.7764 45.2447 36.8768 45.2412C36.9778 45.2453 37.0786 45.2287 37.173 45.1926C37.2675 45.1565 37.3537 45.1015 37.4264 45.031C37.6694 44.787 37.6993 44.3704 37.6993 43.8786C37.6993 43.3869 37.6694 42.9816 37.4264 42.7526ZM38.3387 45.7554C37.9438 46.1294 37.4215 46.3378 36.8786 46.3378C36.3358 46.3378 35.8135 46.1294 35.4186 45.7554C34.9961 45.3087 34.8877 44.7757 34.8877 43.9124C34.8877 43.0491 34.9961 42.5236 35.4186 42.077C35.8147 41.7054 36.3366 41.4988 36.8786 41.4988C37.4207 41.4988 37.9426 41.7054 38.3387 42.077C38.7649 42.5236 38.8733 43.0604 38.8733 43.9124C38.8733 44.7645 38.7649 45.3087 38.3387 45.7554Z" fill="#1C274C" fill-opacity="0.81"></path>
    <path d="M41.606 42.5462C40.8993 42.5462 40.8096 43.128 40.8096 43.8975C40.8096 44.6669 40.8993 45.26 41.606 45.26C42.3126 45.26 42.4024 44.6707 42.4024 43.8975C42.4024 43.1242 42.3089 42.5462 41.606 42.5462ZM43.1015 45.8943C42.788 46.1799 42.3769 46.3332 41.9537 46.3222C41.7324 46.3354 41.511 46.2973 41.3068 46.2107C41.1025 46.1241 40.9209 45.9915 40.776 45.823V46.2659H39.6543V39.7874H40.832V41.9419C40.9711 41.7829 41.1443 41.6577 41.3386 41.5758C41.5329 41.4938 41.7433 41.4573 41.9537 41.4689C42.3765 41.4566 42.7876 41.6085 43.1015 41.8931C43.5689 42.366 43.5801 43.1768 43.5801 43.8824C43.5801 44.5881 43.5801 45.4064 43.1015 45.8793" fill="#1C274C" fill-opacity="0.81"></path>
    <path d="M44.3389 41.5365H45.5129V46.2659H44.3389V41.5365ZM44.3389 39.7686H45.5428V40.7295H44.3389V39.7686Z" fill="#1C274C" fill-opacity="0.81"></path>
    <path d="M47.7939 46.2659C47.6122 46.2801 47.4295 46.2551 47.2582 46.1927C47.0869 46.1302 46.9308 46.0317 46.8005 45.9037C46.6702 45.7758 46.5687 45.6213 46.5027 45.4507C46.4367 45.2801 46.4079 45.0974 46.418 44.9147V39.7874H47.5957V44.8246C47.5957 45.1061 47.7116 45.2525 48.0108 45.2525H48.4632V46.2509L47.7939 46.2659Z" fill="#1C274C" fill-opacity="0.81"></path>
    <path d="M49.043 41.5365H50.2207V46.2659H49.043V41.5365ZM49.043 39.7686H50.2469V40.7295H49.043V39.7686Z" fill="#1C274C" fill-opacity="0.81"></path>
    <path d="M52.6432 46.2659C52.4622 46.279 52.2806 46.2532 52.1103 46.1902C51.9401 46.1272 51.7852 46.0285 51.656 45.9005C51.5268 45.7726 51.4263 45.6185 51.3612 45.4485C51.2961 45.2785 51.2679 45.0965 51.2785 44.9146V42.5724H50.7812V41.6641H51.2785V40.2753H52.4525V41.6641H53.2826V42.5649H52.4525V44.817C52.4525 45.091 52.5796 45.2449 52.8601 45.2449H53.2826V46.2434L52.6432 46.2659Z" fill="#1C274C" fill-opacity="0.81"></path>
    <path d="M55.7471 47.0279C55.6731 47.2536 55.552 47.4609 55.3919 47.6359C55.2577 47.765 55.0985 47.8649 54.9242 47.9295C54.7498 47.994 54.5641 48.0219 54.3786 48.0113H53.9188V46.949H54.1917C54.2583 46.9603 54.3265 46.958 54.3922 46.9425C54.4579 46.927 54.5199 46.8985 54.5746 46.8587C54.6292 46.8188 54.6754 46.7685 54.7105 46.7105C54.7455 46.6526 54.7687 46.5882 54.7787 46.5211L54.9769 45.9431L53.3691 41.5477H54.6067L55.5826 44.4717L56.5247 41.5477H57.7623L55.7471 47.0279Z" fill="#1C274C" fill-opacity="0.81"></path>
    <path d="M61.1532 42.5724V46.2659H59.9792V42.5724H59.4932V41.6641H59.9792V41.0748C59.9697 40.8922 59.999 40.7097 60.0652 40.5394C60.1314 40.3691 60.2329 40.2149 60.3631 40.0871C60.4933 39.9593 60.6491 39.8607 60.8201 39.798C60.9911 39.7354 61.1735 39.71 61.3551 39.7235H62.0244V40.722H61.5608C61.2803 40.722 61.1532 40.8759 61.1532 41.1499V41.6641H62.0244V42.5649L61.1532 42.5724Z" fill="#1C274C" fill-opacity="0.81"></path>
    <path d="M64.7651 42.7526C64.6921 42.6828 64.6057 42.6285 64.5113 42.593C64.4168 42.5575 64.3162 42.5416 64.2155 42.5461C64.1154 42.5421 64.0154 42.5583 63.9217 42.5937C63.8279 42.6292 63.7422 42.6832 63.6696 42.7526C63.4266 43.0003 63.4004 43.4057 63.4004 43.8786C63.4004 44.3516 63.4266 44.787 63.6696 45.031C63.7419 45.101 63.8274 45.1557 63.9212 45.1919C64.015 45.228 64.1151 45.2447 64.2155 45.2412C64.3165 45.2453 64.4173 45.2287 64.5117 45.1926C64.6062 45.1565 64.6924 45.1015 64.7651 45.031C65.0081 44.787 65.038 44.3704 65.038 43.8786C65.038 43.3869 65.0081 42.9816 64.7651 42.7526ZM65.6774 45.7554C65.2825 46.1294 64.7602 46.3378 64.2173 46.3378C63.6745 46.3378 63.1522 46.1294 62.7573 45.7554C62.3348 45.3087 62.2227 44.7757 62.2227 43.9124C62.2227 43.0491 62.3348 42.5236 62.7573 42.077C63.1534 41.7054 63.6753 41.4988 64.2173 41.4988C64.7594 41.4988 65.2813 41.7054 65.6774 42.077C66.1036 42.5236 66.212 43.0604 66.212 43.9124C66.212 44.7645 66.1036 45.3087 65.6774 45.7554Z" fill="#1C274C" fill-opacity="0.81"></path>
    <path d="M69.5426 42.8277C69.4346 42.6979 69.2879 42.6064 69.1241 42.5667C68.9604 42.527 68.7883 42.5412 68.6332 42.6073C68.4781 42.6733 68.3483 42.7877 68.2629 42.9335C68.1776 43.0793 68.1412 43.2488 68.1592 43.417V46.2659H66.9814V41.5365H68.133V41.9907C68.2841 41.8285 68.4672 41.6996 68.6706 41.6124C68.874 41.5252 69.0933 41.4814 69.3145 41.4839C69.5224 41.4707 69.7306 41.5035 69.9244 41.5801C70.1183 41.6566 70.293 41.775 70.4362 41.9269L69.5426 42.8277Z" fill="#1C274C" fill-opacity="0.81"></path>
    <path d="M74.7143 41.7092L73.9029 44.0626H75.5032L74.7143 41.7092ZM76.2098 46.2659L75.8359 45.1211H73.5477L73.1738 46.2659H71.8652L74.1908 39.7874H75.1779L77.5259 46.2509L76.2098 46.2659Z" fill="#1C274C" fill-opacity="0.81"></path>
    <path d="M79.1931 42.5724V46.2659H78.0191V42.5724H77.5293V41.6641H78.0191V41.0748C78.0096 40.8925 78.0388 40.7104 78.1048 40.5404C78.1708 40.3704 78.272 40.2164 78.4017 40.0886C78.5315 39.9608 78.6868 39.8622 78.8574 39.7992C79.028 39.7363 79.21 39.7105 79.3913 39.7235H80.0605V40.7219H79.6006C79.3202 40.7219 79.1931 40.8758 79.1931 41.1498V41.6641H80.0605V42.5649L79.1931 42.5724Z" fill="#1C274C" fill-opacity="0.81"></path>
    <path d="M83.1634 42.8277C83.0878 42.7358 82.9921 42.6627 82.8839 42.6139C82.7756 42.565 82.6576 42.5419 82.539 42.5462C82.4316 42.5501 82.3261 42.5763 82.2292 42.6231C82.1324 42.6698 82.0461 42.7362 81.976 42.8179C81.9058 42.8996 81.8531 42.995 81.8214 43.0981C81.7896 43.2012 81.7793 43.3097 81.7912 43.417V46.2659H80.6172V41.5365H81.765V41.9906C81.9167 41.8282 82.1004 41.6992 82.3045 41.6119C82.5085 41.5247 82.7285 41.4811 82.9502 41.4839C83.1581 41.4704 83.3664 41.5031 83.5603 41.5797C83.7542 41.6562 83.9289 41.7748 84.0719 41.9268L83.1634 42.8277Z" fill="#1C274C" fill-opacity="0.81"></path>
    <path d="M84.3604 41.5365H85.5344V46.2659H84.3604V41.5365ZM84.3604 39.7686H85.5643V40.7295H84.3604V39.7686Z" fill="#1C274C" fill-opacity="0.81"></path>
    <path d="M88.3568 46.3222C87.4146 46.3222 86.248 45.8117 86.248 43.8974C86.248 41.9831 87.4146 41.4839 88.3568 41.4839C88.6463 41.4707 88.9352 41.5205 89.2037 41.63C89.4722 41.7395 89.7139 41.9061 89.9121 42.1182L89.1158 42.9177C89.0279 42.802 88.9148 42.7081 88.7852 42.643C88.6556 42.5779 88.5129 42.5435 88.368 42.5424C88.2402 42.5371 88.1129 42.5622 87.9966 42.6157C87.8803 42.6692 87.7782 42.7495 87.6987 42.8502C87.4946 43.1575 87.4022 43.526 87.437 43.8937C87.4023 44.2637 87.4946 44.6345 87.6987 44.9446C87.778 45.0457 87.88 45.1266 87.9962 45.1808C88.1125 45.2349 88.2399 45.2607 88.368 45.2562C88.513 45.2556 88.6559 45.2214 88.7856 45.1563C88.9153 45.0912 89.0283 44.9969 89.1158 44.8808L89.9121 45.6728C89.7146 45.8866 89.4733 46.055 89.2048 46.1664C88.9363 46.2779 88.6471 46.3297 88.3568 46.3184" fill="#1C274C" fill-opacity="0.81"></path>
    <path d="M92.8178 44.2691H91.8869C91.4606 44.2691 91.2251 44.468 91.2251 44.8058C91.2251 45.1436 91.4419 45.3501 91.9018 45.3501C92.0355 45.3689 92.1717 45.3581 92.3009 45.3186C92.4301 45.279 92.5491 45.2116 92.6496 45.1211C92.719 45.0397 92.7703 44.9443 92.8 44.8414C92.8296 44.7385 92.837 44.6303 92.8216 44.5243L92.8178 44.2691ZM92.844 46.2659V45.8568C92.698 46.0151 92.5183 46.1381 92.3182 46.2168C92.1181 46.2954 91.9029 46.3276 91.6887 46.311C91.4703 46.3275 91.2509 46.2991 91.0439 46.2274C90.8369 46.1558 90.6466 46.0424 90.4848 45.8943C90.2275 45.6024 90.0934 45.2215 90.1109 44.8321C90.1109 44.0814 90.6269 43.4621 91.7186 43.4621H92.8403V43.2256C92.8403 42.7076 92.586 42.4749 91.9616 42.4749C91.7915 42.4556 91.6193 42.4799 91.4611 42.5456C91.3028 42.6112 91.1638 42.716 91.0568 42.8502L90.309 42.0995C90.7689 41.589 91.2213 41.4464 92.0065 41.4464C93.3263 41.4464 94.0143 42.0094 94.0143 43.1167V46.2284L92.844 46.2659Z" fill="#1C274C" fill-opacity="0.81"></path>
  </g>
  <defs>
    <clipPath id="clip0_607_3027">
      <rect width="113" height="48" fill="white"></rect>
    </clipPath>
  </defs>
</svg>
